<svg width="86" height="32" viewBox="0 0 86 32" fill="none" xmlns="http://www.w3.org/2000/svg">
<g clip-path="url(#clip0_308_48)">
<path fill-rule="evenodd" clip-rule="evenodd" d="M0 16C0 7.16347 7.16347 0 16 0C24.8365 0 32 7.16347 32 16C32 24.8365 24.8365 32 16 32C7.16347 32 0 24.8365 0 16ZM17.6677 25.4077V16.7028H20.0706L20.3891 13.7031H17.6677L17.6718 12.2017C17.6718 11.4193 17.7461 11.0001 18.8699 11.0001H20.3721V8H17.9688C15.0821 8 14.0661 9.4552 14.0661 11.9024V13.7034H12.2667V16.7031H14.0661V25.4077H17.6677Z" fill="#FAF4EA"/>
</g>
<g clip-path="url(#clip1_308_48)">
<path fill-rule="evenodd" clip-rule="evenodd" d="M54 16C54 7.16347 61.1635 0 70 0C78.8365 0 86 7.16347 86 16C86 24.8365 78.8365 32 70 32C61.1635 32 54 24.8365 54 16ZM70.0008 7.46667C67.6833 7.46667 67.3924 7.4768 66.4822 7.5182C65.5737 7.5598 64.9537 7.70367 64.4111 7.91467C63.8498 8.1326 63.3737 8.4242 62.8994 8.89867C62.4247 9.373 62.1331 9.84907 61.9145 10.4101C61.7029 10.9529 61.5589 11.5732 61.5181 12.4813C61.4773 13.3915 61.4667 13.6825 61.4667 16.0001C61.4667 18.3176 61.477 18.6076 61.5182 19.5178C61.56 20.4263 61.7038 21.0463 61.9147 21.5889C62.1328 22.1502 62.4243 22.6263 62.8989 23.1006C63.373 23.5753 63.8491 23.8675 64.41 24.0855C64.9529 24.2965 65.5732 24.4403 66.4815 24.4819C67.3917 24.5234 67.6824 24.5335 69.9997 24.5335C72.3175 24.5335 72.6074 24.5234 73.5177 24.4819C74.4261 24.4403 75.0469 24.2965 75.5899 24.0855C76.1509 23.8675 76.6263 23.5753 77.1004 23.1006C77.5751 22.6263 77.8667 22.1502 78.0853 21.5891C78.2951 21.0463 78.4391 20.4261 78.4818 19.518C78.5227 18.6077 78.5333 18.3176 78.5333 16.0001C78.5333 13.6825 78.5227 13.3917 78.4818 12.4815C78.4391 11.573 78.2951 10.9529 78.0853 10.4103C77.8667 9.84907 77.5751 9.373 77.1004 8.89867C76.6257 8.424 76.1511 8.13247 75.5893 7.91467C75.0453 7.70367 74.4249 7.5598 73.5164 7.5182C72.6061 7.4768 72.3164 7.46667 69.9981 7.46667H70.0008Z" fill="#FAF4EA"/>
<path fill-rule="evenodd" clip-rule="evenodd" d="M69.2349 9.00506C69.4621 9.00473 69.7157 9.00506 70.0005 9.00506C72.2789 9.00506 72.5489 9.01326 73.4487 9.05413C74.2807 9.0922 74.7323 9.2312 75.0331 9.348C75.4313 9.50266 75.7152 9.68753 76.0137 9.9862C76.3123 10.2849 76.4973 10.5693 76.6523 10.9676C76.7691 11.268 76.9083 11.7196 76.9461 12.5516C76.987 13.4511 76.9959 13.7214 76.9959 15.9987C76.9959 18.2761 76.987 18.5463 76.9461 19.4459C76.9081 20.2779 76.7691 20.7295 76.6523 21.0299C76.4976 21.4281 76.3123 21.7117 76.0137 22.0102C75.715 22.3089 75.4315 22.4937 75.0331 22.6484C74.7326 22.7657 74.2807 22.9044 73.4487 22.9425C72.5491 22.9833 72.2789 22.9922 70.0005 22.9922C67.7219 22.9922 67.4518 22.9833 66.5523 22.9425C65.7203 22.9041 65.2687 22.765 64.9677 22.6482C64.5695 22.4935 64.285 22.3087 63.9863 22.01C63.6877 21.7113 63.5028 21.4276 63.3478 21.0292C63.231 20.7287 63.0918 20.2772 63.0539 19.4452C63.013 18.5456 63.0049 18.2754 63.0049 15.9966C63.0049 13.7178 63.013 13.449 63.0539 12.5495C63.0919 11.7175 63.231 11.2659 63.3478 10.9651C63.5025 10.5669 63.6877 10.2824 63.9863 9.98373C64.285 9.68506 64.5695 9.5002 64.9677 9.34513C65.2685 9.2278 65.7203 9.08913 66.5523 9.05093C67.3395 9.0154 67.6445 9.00473 69.2349 9.00293V9.00506ZM74.5555 10.4219C73.9902 10.4219 73.5315 10.8801 73.5315 11.4456C73.5315 12.0109 73.9902 12.4696 74.5555 12.4696C75.1209 12.4696 75.5795 12.0109 75.5795 11.4456C75.5795 10.8803 75.1209 10.4219 74.5555 10.4219ZM70.0005 11.6184C67.5803 11.6184 65.6182 13.5806 65.6182 16.0007C65.6182 18.4208 67.5803 20.3821 70.0005 20.3821C72.4206 20.3821 74.382 18.4208 74.382 16.0007C74.382 13.5806 72.4206 11.6184 70.0005 11.6184Z" fill="#FAF4EA"/>
<path fill-rule="evenodd" clip-rule="evenodd" d="M70.0007 13.1553C71.5716 13.1553 72.8452 14.4287 72.8452 15.9997C72.8452 17.5706 71.5716 18.8442 70.0007 18.8442C68.4296 18.8442 67.1562 17.5706 67.1562 15.9997C67.1562 14.4287 68.4296 13.1553 70.0007 13.1553Z" fill="#FAF4EA"/>
</g>
<defs>
<clipPath id="clip0_308_48">
<rect width="32" height="32" fill="white"/>
</clipPath>
<clipPath id="clip1_308_48">
<rect width="32" height="32" fill="white" transform="translate(54)"/>
</clipPath>
</defs>
</svg>
